<svg id="a37ea253-1493-4f60-b562-cc4c70bdf831" data-name="Layer 1" xmlns="http://www.w3.org/2000/svg" viewBox="0 0 166.2 135.73"><defs><style>.afbfa683-1529-4cdc-94bc-7b9c605234d8,.b143e11c-7e0f-4f3d-b9aa-d571ca7a5229,.f8970063-256d-46de-9832-9626f3338b55{fill:#010101;}.afbfa683-1529-4cdc-94bc-7b9c605234d8,.f8970063-256d-46de-9832-9626f3338b55{stroke:#231f20;stroke-miterlimit:10;}.f8970063-256d-46de-9832-9626f3338b55{stroke-width:2px;}</style></defs><path class="b143e11c-7e0f-4f3d-b9aa-d571ca7a5229" d="M91.71,111.75A37.1,37.1,0,0,1,77.12,109a32.48,32.48,0,0,1-11.31-7.9,35.06,35.06,0,0,1-7.29-12.3,47.83,47.83,0,0,1-2.56-16,46.41,46.41,0,0,1,2.6-16,35.32,35.32,0,0,1,7.28-12.13A31.74,31.74,0,0,1,77,36.86a37,37,0,0,1,14.35-2.7,41.18,41.18,0,0,1,11.49,1.54,33.23,33.23,0,0,1,9.5,4.37,26.15,26.15,0,0,1,6.9,6.81A24.13,24.13,0,0,1,123,55.69h-5.88a14.62,14.62,0,0,0-2.63-6.18,20,20,0,0,0-5.43-5.09,29.21,29.21,0,0,0-7.8-3.49,34.57,34.57,0,0,0-9.77-1.3,33,33,0,0,0-12,2.12,25.07,25.07,0,0,0-9.4,6.32A29.4,29.4,0,0,0,64,58.46a42.68,42.68,0,0,0-2.19,14.26A43,43,0,0,0,64,87a30.27,30.27,0,0,0,6.12,10.56,25.52,25.52,0,0,0,9.43,6.53,32.15,32.15,0,0,0,12.14,2.22,34.54,34.54,0,0,0,16.13-3.55,33.72,33.72,0,0,0,11.55-9.85V79.42H98.69V74H124.8v36.43h-3.15l-2.39-10a27.78,27.78,0,0,1-5.74,5.3,31.43,31.43,0,0,1-6.67,3.49,37.91,37.91,0,0,1-7.34,1.94A49.15,49.15,0,0,1,91.71,111.75Z"/><path class="b143e11c-7e0f-4f3d-b9aa-d571ca7a5229" d="M97.5,72.22q0,39.36-39.15,39.36H34.91V34.13H58.35q19.6,0,29.38,9.45T97.5,72.22Zm-6,0A55.66,55.66,0,0,0,90,58.55a23.46,23.46,0,0,0-5.34-10.23,24,24,0,0,0-10.23-6.41,50.79,50.79,0,0,0-16.18-2.19H40.58v66.2H58.21a48.87,48.87,0,0,0,16.1-2.27A23.79,23.79,0,0,0,84.55,97a24.89,24.89,0,0,0,5.38-10.58A59.39,59.39,0,0,0,91.48,72.22Z"/><path class="b143e11c-7e0f-4f3d-b9aa-d571ca7a5229" d="M27.47,81.16c-.1.48-.21.93-.32,1.36s-.21.86-.29,1.32l-5.55-2.65c-1.82-.88-3.63-1.75-5.45-2.61L10.41,76q-2.73-1.32-5.55-2.66V71.14q5.57-2.6,11-5.23t11-5.27c.15.52.26,1,.34,1.33s.17.79.28,1.28L8.65,72.19Z"/><path class="b143e11c-7e0f-4f3d-b9aa-d571ca7a5229" d="M160.28,73.32q-5.59,2.69-11,5.25t-11,5.25q-.21-.81-.33-1.38c-.08-.39-.18-.82-.29-1.31l18.83-8.94L151.87,70l-4.81-2.28-4.79-2.28-4.63-2.2c.1-.47.21-.91.32-1.32s.21-.84.3-1.29l5.53,2.65,5.48,2.6,5.47,2.62c1.83.88,3.67,1.76,5.54,2.63Z"/><path class="afbfa683-1529-4cdc-94bc-7b9c605234d8" d="M136,55.6,129.64,90l-2.13-.48,6.36-34.41Z"/><circle class="f8970063-256d-46de-9832-9626f3338b55" cx="76.8" cy="71.88" r="6.1"/><circle class="f8970063-256d-46de-9832-9626f3338b55" cx="25.83" cy="71.88" r="3.05"/><circle class="f8970063-256d-46de-9832-9626f3338b55" cx="49.2" cy="71.72" r="3.05"/></svg>