<svg fill="#1e293b" id="a7b98618-4bd3-4e3d-97e1-6a4d6a3c0a7a" data-name="Layer 1" xmlns="http://www.w3.org/2000/svg" viewBox="0 0 242.97 152.25"><defs><style>.b132f431-5017-403c-8a50-ced869ab2690{stroke:#000;stroke-miterlimit:10;}</style></defs><path d="M214.59,71.19l-37.12,19V84.71L209,69v-.16L177.47,53.19V47.67l37.12,19Z"/><path d="M50.18,24.08a174.46,174.46,0,0,1,25.9-2c17.5,0,30,4.06,38.22,11.76s13.3,18.62,13.3,33.88-4.76,28-13.58,36.68S90.64,118,72.3,118a196.59,196.59,0,0,1-22.12-1.12Zm12.18,83.44a76.91,76.91,0,0,0,12.32.7c26,0,40.18-14.56,40.18-40,.14-22.26-12.46-36.4-38.22-36.4A69.21,69.21,0,0,0,62.36,33Z"/><path d="M157.89,113a87.91,87.91,0,0,1-29,5.18c-14.28,0-26-3.64-35.28-12.46-8.12-7.84-13.16-20.43-13.16-35.14.14-28.14,19.46-48.71,51.1-48.71,10.92,0,19.46,2.38,23.52,4.34l-2.94,9.94c-5-2.25-11.34-4.07-20.86-4.07-23,0-37.94,14.28-37.94,37.95,0,23.93,14.42,38.07,36.4,38.07,8,0,13.44-1.12,16.24-2.52V77.49H126.81v-9.8h31.08Z"/><path d="M5.28,67.16,42.4,48v5.52L11.12,69.24v.16L42.4,85.08V90.6L5.28,71.48Z"/><rect x="166.32" y="25.74" width="3.09" height="88.11" transform="translate(11.35 -22.68) rotate(8)"/><ellipse class="b132f431-5017-403c-8a50-ced869ab2690" cx="104.24" cy="72.44" rx="5.74" ry="5.66" transform="translate(-22.41 80.99) rotate(-38.66)"/></svg>